<svg width="50" height="50" viewBox="0 0 50 50" fill="none" xmlns="http://www.w3.org/2000/svg">
<path d="M33.8524 29.7168C31.4213 27.5557 28.2815 26.3619 25.0287 26.3619C21.7759 26.3619 18.6361 27.5557 16.205 29.7168C15.9995 29.8946 15.8315 30.1114 15.7105 30.3546C15.5896 30.5979 15.5182 30.8627 15.5005 31.1338C15.4827 31.4049 15.5191 31.6768 15.6073 31.9338C15.6955 32.1907 15.834 32.4275 16.0145 32.6305C16.1951 32.8335 16.4141 32.9986 16.659 33.1162C16.9039 33.2338 17.1697 33.3016 17.441 33.3156C17.7123 33.3297 17.9837 33.2897 18.2394 33.1979C18.4951 33.1062 18.73 32.9645 18.9305 32.7813C20.6108 31.2879 22.7807 30.463 25.0287 30.463C27.2767 30.463 29.4466 31.2879 31.1268 32.7813C31.5335 33.1427 32.067 33.3278 32.6101 33.2958C33.1532 33.2639 33.6614 33.0175 34.0228 32.6108C34.3843 32.2042 34.5694 31.6707 34.5374 31.1275C34.5055 30.5844 34.2591 30.0763 33.8524 29.7148V29.7168Z" fill="#B99470"/>
<path d="M25.0272 17.9395C19.5211 17.9319 14.2194 20.0246 10.203 23.791C9.99962 23.9732 9.83468 24.1941 9.71783 24.4409C9.60099 24.6876 9.53458 24.9552 9.52251 25.2279C9.51044 25.5007 9.55295 25.7731 9.64755 26.0292C9.74214 26.2853 9.88692 26.5199 10.0734 26.7193C10.2599 26.9187 10.4843 27.0789 10.7334 27.1904C10.9826 27.302 11.2516 27.3626 11.5245 27.3688C11.7974 27.3751 12.0689 27.3267 12.3229 27.2267C12.5769 27.1266 12.8084 26.9769 13.0038 26.7862C16.265 23.7372 20.5627 22.0411 25.0272 22.0411C29.4917 22.0411 33.7894 23.7372 37.0506 26.7862C37.246 26.9769 37.4775 27.1266 37.7315 27.2267C37.9855 27.3267 38.2569 27.3751 38.5299 27.3688C38.8028 27.3626 39.0717 27.302 39.3209 27.1904C39.5701 27.0789 39.7945 26.9187 39.981 26.7193C40.1675 26.5199 40.3122 26.2853 40.4068 26.0292C40.5014 25.7731 40.5439 25.5007 40.5319 25.2279C40.5198 24.9552 40.4534 24.6876 40.3365 24.4409C40.2197 24.1941 40.0548 23.9732 39.8514 23.791C35.835 20.0246 30.5333 17.9319 25.0272 17.9395Z" fill="#B99470"/>
<path d="M45.117 17.1738C39.588 12.2406 32.4371 9.51416 25.0271 9.51416C17.6172 9.51416 10.4663 12.2406 4.9373 17.1738C4.7295 17.3513 4.55928 17.5686 4.43663 17.8128C4.31398 18.057 4.24138 18.3233 4.2231 18.5959C4.20482 18.8686 4.24122 19.1422 4.33017 19.4006C4.41911 19.659 4.55881 19.897 4.74105 20.1007C4.92329 20.3043 5.1444 20.4695 5.39138 20.5865C5.63836 20.7035 5.90623 20.7699 6.17926 20.7819C6.45228 20.7939 6.72495 20.7513 6.98124 20.6564C7.23753 20.5615 7.47227 20.4164 7.67168 20.2295C12.4487 15.9691 18.6258 13.6147 25.0267 13.6147C31.4275 13.6147 37.6047 15.9691 42.3816 20.2295C42.7871 20.5921 43.32 20.7788 43.8631 20.7484C44.4062 20.7181 44.915 20.4733 45.2776 20.0679C45.6402 19.6624 45.8269 19.1295 45.7966 18.5864C45.7663 18.0433 45.5215 17.5345 45.116 17.1719L45.117 17.1738Z" fill="#B99470"/>
<path d="M25.0273 41.5439C26.7532 41.5439 28.1523 40.1448 28.1523 38.4189C28.1523 36.6931 26.7532 35.2939 25.0273 35.2939C23.3015 35.2939 21.9023 36.6931 21.9023 38.4189C21.9023 40.1448 23.3015 41.5439 25.0273 41.5439Z" fill="#B99470"/>
</svg>
