<svg width="50" height="50" viewBox="0 0 50 50" fill="none" xmlns="http://www.w3.org/2000/svg">
<path d="M25 0C11.1934 0 0 11.1934 0 25C0 38.8066 11.1934 50 25 50C38.8066 50 50 38.8066 50 25C50 11.1934 38.8066 0 25 0ZM32.1811 34.856C31.0905 36.1831 29.6708 37.0782 28.0144 37.5309C27.2942 37.7263 26.965 38.107 27.0062 38.858C27.037 39.5988 27.0062 40.3292 26.9959 41.07C26.9959 41.7284 26.6564 42.0782 26.0082 42.0988C25.5864 42.1091 25.1646 42.1193 24.7428 42.1193C24.3724 42.1193 24.0021 42.1193 23.6317 42.1091C22.9321 42.0988 22.6029 41.6975 22.6029 41.0185C22.5926 40.4835 22.5926 39.9383 22.5926 39.4033C22.5823 38.2099 22.5412 38.1687 21.3992 37.9835C19.9383 37.7469 18.4979 37.4177 17.1605 36.7695C16.1111 36.2551 15.9979 35.9979 16.2963 34.8868C16.5226 34.0638 16.749 33.2407 17.0062 32.428C17.1914 31.8313 17.3663 31.5638 17.6852 31.5638C17.8704 31.5638 18.107 31.6564 18.4259 31.821C19.9074 32.5926 21.4815 33.0247 23.1379 33.2305C23.4156 33.2613 23.6934 33.2819 23.9712 33.2819C24.7428 33.2819 25.4938 33.1379 26.2243 32.8189C28.0658 32.0165 28.3539 29.8868 26.8004 28.6111C26.2757 28.179 25.6687 27.8601 25.0412 27.5823C23.4259 26.8724 21.749 26.3374 20.2263 25.4218C17.7572 23.9403 16.1934 21.9136 16.3786 18.9095C16.5844 15.5144 18.5082 13.3951 21.6255 12.2634C22.9115 11.8004 22.9218 11.8107 22.9218 10.4733C22.9218 10.0206 22.9115 9.5679 22.9321 9.10494C22.963 8.09671 23.1276 7.92181 24.1358 7.89095C24.249 7.89095 24.3724 7.89095 24.4856 7.89095C24.6811 7.89095 24.8765 7.89095 25.072 7.89095C25.1543 7.89095 25.2366 7.89095 25.3086 7.89095C27.2222 7.89095 27.2222 7.97325 27.2325 10.0412C27.2428 11.5638 27.2428 11.5638 28.7551 11.8004C29.9177 11.9856 31.0185 12.3251 32.0885 12.7984C32.6749 13.0556 32.9012 13.4671 32.716 14.0946C32.4486 15.0206 32.1914 15.9568 31.9033 16.8724C31.7181 17.428 31.5432 17.6852 31.214 17.6852C31.0288 17.6852 30.8025 17.6132 30.5144 17.4691C29.0329 16.749 27.4794 16.3992 25.8539 16.3992C25.6481 16.3992 25.4321 16.4095 25.2263 16.4198C24.7428 16.4506 24.2695 16.5123 23.8169 16.7078C22.2119 17.4074 21.9547 19.177 23.323 20.2675C24.0123 20.823 24.8045 21.214 25.6173 21.5535C27.037 22.1399 28.4568 22.7058 29.8045 23.4465C34.0432 25.8128 35.1955 31.1934 32.1811 34.856Z" fill="#B99470"/>
</svg>
