<svg width="50" height="50" viewBox="0 0 50 50" fill="none" xmlns="http://www.w3.org/2000/svg">
<path d="M24.9999 28.1988C28.4496 28.1988 36.5603 24.0472 36.5603 14.0993C36.5604 6.31243 35.5093 0 24.9999 0C14.4906 0 13.4395 6.31243 13.4395 14.0994C13.4395 24.0472 21.5502 28.1988 24.9999 28.1988ZM15.1672 11.7463C15.9793 10.1758 17.7358 8.36096 21.5134 8.44146C21.5134 8.44146 23.765 13.9029 34.8189 11.4503C34.8635 12.3227 34.8776 13.2129 34.8776 14.0994C34.8776 18.9619 32.7305 21.9748 30.9292 23.6459C28.6596 25.7518 26.1398 26.5161 24.9999 26.5161C23.8599 26.5161 21.3401 25.7518 19.0705 23.6459C17.2692 21.9748 15.1222 18.9619 15.1222 14.0994C15.1223 13.3128 15.1338 12.5235 15.1672 11.7463Z" fill="#B99470"/>
<path d="M46.4622 42.6588C45.872 38.9889 44.6569 34.2617 42.2198 32.5818C40.5557 31.4344 34.7494 28.3323 32.2701 27.0076L32.2272 26.9847C31.9438 26.8333 31.5977 26.8636 31.3449 27.0621C30.0461 28.0818 28.6233 28.769 27.1162 29.1046C26.8499 29.164 26.6314 29.3531 26.5346 29.6081L24.9999 33.6535L23.4651 29.6081C23.3683 29.3531 23.1498 29.164 22.8836 29.1046C21.3764 28.769 19.9537 28.0818 18.6548 27.0621C18.402 26.8636 18.056 26.8332 17.7726 26.9847C15.3227 28.2938 9.44537 31.4591 7.78722 32.5768C4.98184 34.4667 3.7551 41.3068 3.53775 42.6588C3.51616 42.7929 3.52874 42.9301 3.57392 43.058C3.67431 43.3414 6.24904 50.0001 24.9999 50.0001C43.7507 50.0001 46.3255 43.3414 46.4258 43.058C46.4712 42.9301 46.4838 42.7928 46.4622 42.6588ZM37.8217 40.4194L34.1514 41.5633L30.4812 40.4194V38.4446H37.8217V40.4194Z" fill="#B99470"/>
</svg>
