<svg width="50" height="50" viewBox="0 0 50 50" fill="none" xmlns="http://www.w3.org/2000/svg">
<path d="M45.0196 34.082L41.6993 32.1641C42.3001 31.5452 42.9892 31.0187 43.7442 30.6016C44.2378 30.3233 44.6014 29.8613 44.756 29.3162C44.9106 28.771 44.8435 28.1869 44.5695 27.691C44.2954 27.195 43.8366 26.8274 43.2928 26.6682C42.749 26.509 42.1643 26.571 41.6661 26.8408C40.2245 27.6387 38.9471 28.7024 37.9014 29.9756L29.2969 25L37.8995 20.0332C38.9449 21.3067 40.2224 22.3704 41.6641 23.168C41.9112 23.3073 42.1835 23.3963 42.4652 23.4298C42.7469 23.4634 43.0324 23.4408 43.3053 23.3634C43.5783 23.286 43.8331 23.1554 44.0553 22.979C44.2775 22.8025 44.4625 22.5839 44.5997 22.3356C44.7369 22.0873 44.8236 21.8143 44.8547 21.5323C44.8858 21.2503 44.8608 20.965 44.7811 20.6927C44.7014 20.4205 44.5685 20.1667 44.3902 19.9461C44.2119 19.7254 43.9917 19.5423 43.7422 19.4072C42.9874 18.9899 42.2983 18.4634 41.6973 17.8447L45.0176 15.9268C45.2716 15.791 45.4957 15.6055 45.6765 15.3814C45.8574 15.1573 45.9914 14.8991 46.0705 14.6222C46.1496 14.3452 46.1722 14.0553 46.137 13.7694C46.1018 13.4836 46.0094 13.2077 45.8655 12.9583C45.7216 12.7089 45.5289 12.4909 45.2991 12.3174C45.0692 12.1439 44.8068 12.0183 44.5275 11.9483C44.2481 11.8782 43.9576 11.865 43.673 11.9094C43.3885 11.9539 43.1158 12.0551 42.8711 12.207L39.5508 14.124C39.3143 13.2939 39.2018 12.4334 39.2168 11.5703C39.2231 11.2877 39.1734 11.0066 39.0708 10.7432C38.9682 10.4797 38.8146 10.2392 38.6188 10.0352C38.423 9.83128 38.1889 9.66798 37.9299 9.55469C37.6709 9.44139 37.3921 9.38033 37.1094 9.375H37.0694C36.5064 9.3749 35.966 9.59575 35.5642 9.99004C35.1624 10.3843 34.9314 10.9206 34.9209 11.4834C34.8907 13.1298 35.1723 14.767 35.751 16.3086L27.1485 21.2783V11.3457C28.7739 11.0771 30.3336 10.5028 31.7452 9.65332C32.2332 9.35923 32.5845 8.88328 32.7217 8.3302C32.8589 7.77711 32.7707 7.19219 32.4766 6.7041C32.1825 6.21602 31.7066 5.86475 31.1535 5.72758C30.6004 5.5904 30.0155 5.67856 29.5274 5.97266C28.7875 6.41736 27.9858 6.75006 27.1485 6.95996V3.71094C27.1485 3.14114 26.9221 2.59467 26.5192 2.19176C26.1163 1.78885 25.5698 1.5625 25 1.5625C24.4302 1.5625 23.8838 1.78885 23.4809 2.19176C23.078 2.59467 22.8516 3.14114 22.8516 3.71094V6.95996C22.0143 6.75006 21.2126 6.41736 20.4727 5.97266C19.9846 5.67856 19.3997 5.5904 18.8466 5.72758C18.2935 5.86475 17.8176 6.21602 17.5235 6.7041C17.2294 7.19219 17.1412 7.77711 17.2784 8.3302C17.4156 8.88328 17.7668 9.35923 18.2549 9.65332C19.6665 10.5028 21.2262 11.0771 22.8516 11.3457V21.2783L14.2491 16.3086C14.8287 14.7665 15.111 13.1286 15.0811 11.4814C15.0706 10.9186 14.8396 10.3824 14.4378 9.98809C14.0361 9.5938 13.4956 9.37295 12.9327 9.37305H12.8907C12.6085 9.37826 12.3302 9.439 12.0715 9.55181C11.8128 9.66462 11.5789 9.82728 11.3831 10.0305C11.1873 10.2337 11.0335 10.4736 10.9304 10.7362C10.8273 10.9989 10.777 11.2794 10.7823 11.5615C10.798 12.4258 10.6858 13.2877 10.4493 14.1191L7.12895 12.207C6.88444 12.0612 6.61338 11.9654 6.33153 11.9252C6.04968 11.885 5.76265 11.9013 5.48713 11.973C5.2116 12.0447 4.95308 12.1705 4.72659 12.343C4.5001 12.5155 4.31015 12.7313 4.16778 12.9778C4.02542 13.2244 3.93347 13.4967 3.8973 13.7791C3.86112 14.0615 3.88143 14.3483 3.95705 14.6228C4.03267 14.8973 4.16209 15.154 4.33779 15.378C4.51349 15.602 4.73196 15.7889 4.98051 15.9277L8.30082 17.8457C7.69979 18.4643 7.01072 18.9908 6.2559 19.4082C6.00644 19.5433 5.7862 19.7264 5.60789 19.9471C5.42958 20.1677 5.29674 20.4215 5.21702 20.6937C5.1373 20.966 5.11229 21.2513 5.14343 21.5333C5.17457 21.8153 5.26124 22.0883 5.39845 22.3366C5.53565 22.5849 5.72067 22.8035 5.94283 22.9799C6.16498 23.1563 6.41988 23.287 6.6928 23.3644C6.96572 23.4418 7.25127 23.4644 7.53296 23.4308C7.81465 23.3973 8.08691 23.3083 8.33402 23.1689C9.77556 22.3711 11.0529 21.3074 12.0987 20.0342L20.7032 25L12.1006 29.9668C11.0549 28.6936 9.77751 27.6299 8.33598 26.832C8.08886 26.6927 7.81661 26.6037 7.53491 26.5702C7.25322 26.5366 6.96767 26.5592 6.69475 26.6366C6.42183 26.714 6.16693 26.8446 5.94478 27.021C5.72262 27.1975 5.5376 27.4161 5.4004 27.6644C5.26319 27.9127 5.17652 28.1857 5.14538 28.4677C5.11424 28.7497 5.13926 29.035 5.21897 29.3073C5.29869 29.5795 5.43154 29.8333 5.60985 30.0539C5.78815 30.2746 6.00839 30.4577 6.25785 30.5928C7.01267 31.0101 7.70174 31.5366 8.30277 32.1553L4.98051 34.082C4.73196 34.2209 4.51349 34.4078 4.33779 34.6318C4.16209 34.8558 4.03267 35.1125 3.95705 35.387C3.88143 35.6615 3.86112 35.9482 3.8973 36.2306C3.93347 36.513 4.02542 36.7854 4.16778 37.032C4.31015 37.2785 4.5001 37.4943 4.72659 37.6668C4.95308 37.8393 5.2116 37.9651 5.48713 38.0368C5.76265 38.1085 6.04968 38.1247 6.33153 38.0846C6.61338 38.0444 6.88444 37.9486 7.12895 37.8027L10.4493 35.8857C10.6857 36.7159 10.7983 37.5764 10.7832 38.4395C10.7733 39.0086 10.9897 39.5585 11.3848 39.9682C11.7799 40.378 12.3215 40.6142 12.8907 40.625H12.9307C13.4936 40.6251 14.0341 40.4042 14.4359 40.01C14.8377 39.6157 15.0687 39.0794 15.0791 38.5166C15.1094 36.8702 14.8277 35.233 14.2491 33.6914L22.8516 28.7217V38.6543C21.2262 38.9229 19.6665 39.4972 18.2549 40.3467C17.7668 40.6408 17.4156 41.1167 17.2784 41.6698C17.1412 42.2229 17.2294 42.8078 17.5235 43.2959C17.8176 43.784 18.2935 44.1353 18.8466 44.2724C19.3997 44.4096 19.9846 44.3214 20.4727 44.0273C21.2126 43.5826 22.0143 43.2499 22.8516 43.04V46.2891C22.8516 46.8589 23.078 47.4053 23.4809 47.8082C23.8838 48.2111 24.4302 48.4375 25 48.4375C25.5698 48.4375 26.1163 48.2111 26.5192 47.8082C26.9221 47.4053 27.1485 46.8589 27.1485 46.2891V43.04C27.9858 43.2499 28.7875 43.5826 29.5274 44.0273C30.0155 44.3214 30.6004 44.4096 31.1535 44.2724C31.7066 44.1353 32.1825 43.784 32.4766 43.2959C32.7707 42.8078 32.8589 42.2229 32.7217 41.6698C32.5845 41.1167 32.2332 40.6408 31.7452 40.3467C30.3336 39.4972 28.7739 38.9229 27.1485 38.6543V28.7217L35.751 33.6914C35.1714 35.2335 34.8891 36.8714 34.919 38.5186C34.9295 39.0814 35.1605 39.6176 35.5622 40.0119C35.964 40.4062 36.5045 40.627 37.0674 40.627H37.1094C37.3916 40.6217 37.6699 40.561 37.9286 40.4482C38.1873 40.3354 38.4212 40.1727 38.617 39.9695C38.8128 39.7663 38.9666 39.5264 39.0697 39.2638C39.1728 39.0011 39.2231 38.7206 39.2178 38.4385C39.2021 37.5742 39.3143 36.7123 39.5508 35.8809L42.8711 37.7979C43.1156 37.9548 43.3894 38.0606 43.676 38.1088C43.9625 38.1569 44.2558 38.1464 44.5382 38.0779C44.8206 38.0095 45.0862 37.8844 45.3188 37.7104C45.5515 37.5364 45.7464 37.3169 45.8919 37.0654C46.0373 36.8139 46.1302 36.5354 46.165 36.247C46.1997 35.9585 46.1756 35.666 46.0941 35.3871C46.0125 35.1082 45.8752 34.8487 45.6906 34.6244C45.5059 34.4001 45.2776 34.2156 45.0196 34.082Z" fill="#B99470"/>
</svg>
