<svg width="159" height="54" viewBox="0 0 159 54" fill="none" xmlns="http://www.w3.org/2000/svg">
<path fill-rule="evenodd" clip-rule="evenodd" d="M143.584 35.1749C143.584 31.926 143.584 31.3624 143.617 30.6662C143.65 29.9368 143.816 29.6053 144.413 29.5058C144.678 29.4395 144.976 29.4395 145.109 29.4395C145.209 29.4395 145.275 29.4064 145.275 29.3069C145.275 29.1743 145.175 29.1412 144.943 29.1412C144.313 29.1412 142.788 29.2075 142.689 29.2075C142.589 29.2075 141.297 29.1412 140.335 29.1412C140.103 29.1412 140.004 29.1743 140.004 29.3069C140.004 29.4064 140.103 29.4395 140.169 29.4395C140.368 29.4395 140.733 29.4395 140.899 29.5058C141.562 29.6385 141.727 29.97 141.794 30.6662C141.827 31.3624 141.827 31.926 141.827 35.1749V38.8549C141.827 40.844 141.827 42.5017 141.727 43.3636C141.628 43.9604 141.529 44.4245 141.131 44.524C140.932 44.5571 140.667 44.5903 140.501 44.5903C140.368 44.5903 140.335 44.6566 140.335 44.7229C140.335 44.8555 140.435 44.8887 140.667 44.8887C141.429 44.8887 142.059 44.8224 142.689 44.8224C144.711 44.8224 146.501 44.955 148.292 44.955C149.386 44.955 149.452 44.8555 149.585 44.3914C149.75 43.7946 149.916 42.5348 149.916 42.3028C149.916 42.0707 149.883 42.0044 149.784 42.0044C149.651 42.0044 149.618 42.1038 149.585 42.2696C149.518 42.6674 149.319 43.1647 149.054 43.4963C148.557 44.1261 147.629 44.1261 146.535 44.1261C144.91 44.1261 144.38 43.9935 144.048 43.662C143.65 43.2973 143.584 41.9381 143.584 38.888V35.1749ZM92.5953 52.9779C92.5953 52.6795 92.5953 52.3148 92.5953 51.9502C92.5953 51.3866 92.5953 50.9224 92.5953 50.5578H92.3301C92.1975 50.5578 92.0317 50.5578 91.8659 50.5578C91.7333 50.5578 91.6339 50.5909 91.5676 50.5909C91.5676 50.5578 91.5676 50.4915 91.5676 50.4251C91.5676 50.392 91.5676 50.3257 91.5676 50.2925C91.7333 50.2925 91.9322 50.2925 92.1643 50.3257C92.3632 50.3257 92.529 50.3257 92.6616 50.3257H92.7611H92.8937C93.0263 50.3257 93.192 50.3257 93.4241 50.3257C93.623 50.2925 93.8219 50.2925 93.9877 50.2925C93.9877 50.3257 93.9877 50.392 93.9877 50.4251C93.9877 50.4915 93.9877 50.5578 93.9877 50.5909C93.9214 50.5909 93.8219 50.5578 93.6562 50.5578C93.5236 50.5578 93.3578 50.5578 93.2252 50.5578H93.0263C93.0263 50.9224 93.0263 51.3866 93.0263 51.9502C93.0263 52.3148 93.0263 52.6795 93.0263 52.9779C93.0263 53.1768 93.0263 53.3094 93.0263 53.4089C93.0594 53.4752 93.0594 53.5415 93.0594 53.5746C92.9931 53.5415 92.8937 53.5415 92.8274 53.5415C92.7279 53.5415 92.6284 53.5415 92.5621 53.5746C92.5621 53.5415 92.5953 53.4752 92.5953 53.4089C92.5953 53.3094 92.5953 53.1768 92.5953 52.9779ZM97.104 52.9779C97.2698 52.6795 97.4356 52.348 97.6013 51.9502C97.8997 51.3203 98.1318 50.7567 98.2975 50.3257H98.3307H98.397C98.5628 50.7567 98.7948 51.2871 99.0932 51.9502C99.259 52.3148 99.3916 52.6795 99.5573 52.9779L99.8226 53.5746C99.7563 53.5415 99.6568 53.5415 99.5573 53.5415C99.4579 53.5415 99.3916 53.5415 99.2921 53.5746C99.2921 53.4752 99.259 53.4089 99.2258 53.3094C99.1927 53.2431 99.1595 53.1437 99.0932 52.9779L98.828 52.348C98.6622 52.3148 98.4633 52.3148 98.2312 52.3148C98.0323 52.2817 97.8334 52.3148 97.6345 52.348C97.5682 52.5801 97.4687 52.779 97.4024 52.9779C97.3361 53.1105 97.303 53.21 97.2698 53.3094C97.2367 53.3757 97.2035 53.4752 97.2035 53.5746C97.1372 53.5415 97.0709 53.5415 97.0046 53.5415C96.9383 53.5415 96.872 53.5415 96.8057 53.5746C96.8388 53.5415 96.872 53.4752 96.9051 53.4089C96.9383 53.3426 97.0046 53.1768 97.104 52.9779ZM98.2312 50.9887C98.1318 51.254 97.966 51.5855 97.8334 51.917L97.7671 52.0496C97.9329 52.0496 98.0655 52.0828 98.2312 52.0828C98.397 52.0828 98.5628 52.0496 98.6954 52.0496L98.6622 51.917L98.2312 50.9887ZM104.364 50.823C104.298 50.7235 104.232 50.6241 104.132 50.5578C104.033 50.4915 103.9 50.4583 103.801 50.4583C103.602 50.4583 103.469 50.5246 103.37 50.6241C103.237 50.7235 103.204 50.8561 103.204 51.0219C103.204 51.1545 103.237 51.2871 103.37 51.3866C103.469 51.486 103.635 51.5855 103.867 51.6849C104.166 51.7844 104.364 51.8839 104.497 52.0496C104.597 52.1822 104.663 52.3812 104.663 52.6132C104.663 52.8784 104.563 53.1437 104.364 53.3094C104.166 53.5083 103.9 53.6078 103.602 53.6078C103.436 53.6078 103.27 53.6078 103.138 53.5415C102.972 53.5083 102.873 53.4089 102.773 53.3426C102.806 53.2763 102.806 53.21 102.839 53.1768C102.839 53.1105 102.839 53.0774 102.839 53.0111L102.939 52.9779C103.005 53.1105 103.105 53.21 103.237 53.3094C103.37 53.3757 103.503 53.4089 103.635 53.4089C103.834 53.4089 104 53.3426 104.132 53.2431C104.265 53.1105 104.331 52.9447 104.331 52.7458C104.331 52.5801 104.265 52.4475 104.166 52.348C104.066 52.2154 103.9 52.1491 103.668 52.0496C103.37 51.9502 103.138 51.8176 103.038 51.6849C102.906 51.5523 102.839 51.3534 102.839 51.1545C102.839 50.8893 102.939 50.6904 103.105 50.5246C103.304 50.3257 103.536 50.2594 103.801 50.2594C103.933 50.2594 104.066 50.2594 104.199 50.3257C104.331 50.3588 104.431 50.392 104.53 50.4583C104.53 50.5246 104.497 50.5909 104.497 50.6572C104.464 50.6904 104.464 50.7567 104.431 50.823H104.364ZM108.078 52.9779C108.078 52.6795 108.078 52.3148 108.078 51.9502C108.078 51.5523 108.078 51.1877 108.078 50.8893C108.044 50.6904 108.044 50.5578 108.044 50.4583C108.044 50.392 108.044 50.3588 108.044 50.3257C108.111 50.3257 108.177 50.3257 108.276 50.3257C108.376 50.3257 108.442 50.3257 108.509 50.3257C108.509 50.3257 108.509 50.392 108.509 50.4583C108.509 50.5578 108.509 50.6904 108.475 50.8893C108.475 51.1214 108.475 51.3866 108.475 51.6849C108.741 51.6849 109.072 51.7181 109.437 51.7181C109.802 51.7181 110.1 51.6849 110.398 51.6849L110.365 50.8893C110.365 50.6904 110.365 50.5578 110.365 50.4583C110.365 50.392 110.365 50.3257 110.332 50.3257C110.431 50.3257 110.498 50.3257 110.597 50.3257C110.663 50.3257 110.763 50.3257 110.829 50.3257C110.829 50.3588 110.829 50.392 110.829 50.4583C110.796 50.5578 110.796 50.6904 110.796 50.8893C110.796 51.1877 110.796 51.5523 110.796 51.9502C110.796 52.3148 110.796 52.6795 110.796 52.9779C110.796 53.1768 110.796 53.3094 110.829 53.4089C110.829 53.4752 110.829 53.5415 110.829 53.5746C110.763 53.5415 110.663 53.5415 110.597 53.5415C110.498 53.5415 110.431 53.5415 110.332 53.5746C110.365 53.5415 110.365 53.4752 110.365 53.4089C110.365 53.3094 110.365 53.1768 110.365 52.9779C110.398 52.6795 110.398 52.348 110.398 51.9833C110.1 51.9502 109.802 51.9502 109.437 51.9502C109.072 51.9502 108.774 51.9502 108.475 51.9833C108.475 52.348 108.475 52.6795 108.475 52.9779C108.509 53.1768 108.509 53.3094 108.509 53.4089C108.509 53.4752 108.509 53.5415 108.509 53.5746C108.442 53.5415 108.376 53.5415 108.276 53.5415C108.177 53.5415 108.111 53.5415 108.044 53.5746C108.044 53.5415 108.044 53.4752 108.044 53.4089C108.044 53.3094 108.044 53.1768 108.078 52.9779ZM114.808 52.9779C114.808 53.1768 114.841 53.3094 114.841 53.4089C114.841 53.4752 114.841 53.5415 114.841 53.5746C114.774 53.5415 114.708 53.5415 114.609 53.5415C114.509 53.5415 114.443 53.5415 114.377 53.5746C114.377 53.5415 114.377 53.4752 114.377 53.4089C114.377 53.3094 114.377 53.1768 114.377 52.9779C114.41 52.6795 114.41 52.3148 114.41 51.9502C114.41 51.5523 114.41 51.1877 114.377 50.8893C114.377 50.6904 114.377 50.5578 114.377 50.4583C114.377 50.392 114.377 50.3257 114.377 50.2925C114.443 50.3257 114.509 50.3257 114.609 50.3257C114.708 50.3257 114.774 50.3257 114.841 50.2925C114.841 50.3257 114.841 50.392 114.841 50.4583C114.841 50.5578 114.808 50.6904 114.808 50.8893C114.808 51.1877 114.808 51.486 114.808 51.8176C115.04 51.6186 115.272 51.3866 115.537 51.1214C115.835 50.823 116.067 50.5578 116.266 50.3257C116.333 50.3257 116.432 50.3257 116.498 50.3257C116.598 50.3257 116.697 50.3257 116.764 50.3257C116.73 50.3257 116.664 50.392 116.565 50.4583C116.498 50.5246 116.333 50.6904 116.101 50.8893L115.736 51.254L115.239 51.7513L115.736 52.3812L116.266 52.9779C116.465 53.21 116.565 53.3426 116.664 53.4089C116.73 53.5083 116.764 53.5415 116.764 53.5746C116.697 53.5415 116.598 53.5415 116.465 53.5415C116.366 53.5415 116.266 53.5415 116.167 53.5746C116.134 53.4752 116.067 53.4089 116.034 53.3426C115.968 53.2431 115.868 53.1437 115.736 52.9779L115.504 52.6795C115.239 52.3812 115.006 52.1159 114.808 51.917V51.9502C114.808 52.3148 114.808 52.6795 114.808 52.9779ZM119.814 53.5746C119.814 53.5746 119.847 53.5083 119.847 53.442C119.847 53.3426 119.847 53.21 119.847 53.0111C119.847 52.6795 119.847 52.348 119.847 51.9502C119.847 51.5523 119.847 51.1877 119.847 50.8561C119.847 50.6572 119.847 50.5246 119.847 50.4583C119.847 50.3588 119.814 50.3257 119.814 50.2925C119.88 50.2925 119.979 50.2925 120.112 50.3257C120.245 50.3257 120.344 50.3257 120.477 50.3257H120.841C121.007 50.3257 121.107 50.3257 121.239 50.3257C121.339 50.2925 121.438 50.2925 121.538 50.2925C121.504 50.3257 121.504 50.392 121.504 50.4583C121.504 50.4915 121.504 50.5578 121.538 50.5909C121.471 50.5909 121.372 50.5909 121.239 50.5578C121.107 50.5578 120.974 50.5578 120.841 50.5578H120.676C120.543 50.5578 120.41 50.5578 120.278 50.5578V51.7513H120.676C120.808 51.7513 120.974 51.7513 121.107 51.7513C121.239 51.7181 121.372 51.7181 121.405 51.7181C121.405 51.7513 121.405 51.8176 121.405 51.8839C121.405 51.917 121.405 51.9833 121.405 52.0165C121.372 52.0165 121.239 52.0165 121.107 51.9833C120.974 51.9833 120.808 51.9833 120.676 51.9833H120.278C120.278 52.4806 120.278 52.9447 120.278 53.3094H120.609H120.742C120.908 53.3094 121.04 53.3094 121.206 53.3094C121.372 53.2763 121.471 53.2763 121.538 53.2763C121.504 53.3094 121.504 53.3757 121.504 53.442C121.504 53.4752 121.504 53.5415 121.538 53.5746C121.471 53.5746 121.372 53.5746 121.239 53.5746C121.073 53.5415 120.974 53.5415 120.841 53.5415H120.477C120.377 53.5415 120.245 53.5415 120.112 53.5746C119.979 53.5746 119.88 53.5746 119.814 53.5746ZM125.284 52.9779C125.284 53.1768 125.284 53.3094 125.284 53.4089C125.284 53.4752 125.284 53.5415 125.317 53.5746C125.251 53.5415 125.217 53.5415 125.151 53.5415C125.085 53.5415 125.019 53.5415 124.985 53.5746C124.985 53.5415 124.985 53.4752 124.985 53.4089C124.985 53.3094 124.985 53.1768 125.019 52.9779C125.019 52.6795 125.019 52.3148 125.019 51.9502C125.019 51.5523 125.019 51.2208 125.019 50.8893C124.985 50.6904 124.985 50.5578 124.985 50.4915C124.985 50.392 124.985 50.3588 124.985 50.3257H125.052H125.118C125.516 50.7898 126.013 51.3203 126.643 51.9833L127.439 52.8121V51.9833C127.439 51.5855 127.439 51.2208 127.406 50.8893C127.406 50.6904 127.406 50.5578 127.406 50.4583C127.406 50.392 127.406 50.3257 127.406 50.3257C127.439 50.3257 127.505 50.3257 127.571 50.3257C127.638 50.3257 127.671 50.3257 127.737 50.3257C127.704 50.3257 127.704 50.392 127.704 50.4583C127.704 50.5578 127.704 50.6904 127.704 50.8893C127.704 51.2208 127.671 51.5855 127.671 51.9833C127.671 52.6132 127.704 53.1768 127.704 53.6078H127.638H127.571C127.173 53.1768 126.676 52.6132 126.046 51.9502L125.251 51.1214V51.9502C125.251 52.3148 125.251 52.6795 125.284 52.9779ZM131.981 52.9779C131.981 52.6795 131.981 52.3148 131.981 51.9502C131.981 51.3866 131.981 50.9224 131.947 50.5578H131.715C131.55 50.5578 131.417 50.5578 131.251 50.5578C131.085 50.5578 130.986 50.5909 130.953 50.5909C130.953 50.5578 130.953 50.4915 130.953 50.4251C130.953 50.392 130.953 50.3257 130.953 50.2925C131.119 50.2925 131.318 50.2925 131.516 50.3257C131.749 50.3257 131.914 50.3257 132.014 50.3257H132.146H132.279C132.412 50.3257 132.577 50.3257 132.776 50.3257C133.008 50.2925 133.207 50.2925 133.373 50.2925C133.34 50.3257 133.34 50.392 133.34 50.4251C133.34 50.4915 133.34 50.5578 133.373 50.5909C133.307 50.5909 133.207 50.5578 133.042 50.5578C132.876 50.5578 132.743 50.5578 132.577 50.5578H132.412C132.378 50.9224 132.378 51.3866 132.378 51.9502C132.378 52.3148 132.378 52.6795 132.412 52.9779C132.412 53.1768 132.412 53.3094 132.412 53.4089C132.412 53.4752 132.412 53.5415 132.412 53.5746C132.345 53.5415 132.279 53.5415 132.18 53.5415C132.08 53.5415 132.014 53.5415 131.947 53.5746C131.947 53.5415 131.947 53.4752 131.947 53.4089C131.947 53.3094 131.981 53.1768 131.981 52.9779ZM33.6168 50.7898C31.1966 51.5192 28.6439 51.917 25.9585 51.917C22.5438 51.917 19.2285 51.254 16.2448 50.0273C22.2454 50.2594 28.0803 50.6904 33.6168 50.7898ZM42.4685 45.9827C40.6783 47.4746 38.6891 48.7344 36.501 49.6958C27.7156 49.3311 20.422 47.0436 11.9349 46.6457C11.3714 46.6457 10.8078 46.6126 10.2442 46.6126C9.74687 46.2479 9.28274 45.8501 8.8186 45.4523C10.3436 45.3528 11.8686 45.3196 13.3605 45.3528C23.7041 45.618 33.6168 46.6789 42.4685 45.9827ZM47.4083 40.6451C46.3142 42.2365 45.0544 43.6952 43.6289 44.9881C31.6939 45.9495 22.9748 42.6011 12.4654 42.1038C10.5425 42.0044 8.58653 42.137 6.49792 42.3028C6.26585 42.3359 6.06693 42.3359 5.86802 42.3691C5.50334 41.9712 5.17181 41.5402 4.87344 41.0761C7.95663 40.5788 11.0067 40.4131 13.9573 40.4794C25.9917 40.7777 37.4956 42.1701 47.4083 40.6451ZM49.9279 36.0038C49.3974 37.2967 48.7675 38.5234 48.0382 39.6837C34.0809 41.8386 24.6324 37.7608 13.0621 37.2304C11.1393 37.1309 9.15013 37.2636 7.06151 37.4293C5.6691 37.5951 4.30984 37.8271 2.98374 38.0592C2.85113 37.8271 2.75167 37.5951 2.61906 37.3299C6.66368 36.4679 10.642 36.1032 14.4545 36.2027C27.3178 36.5673 39.6174 38.1255 49.9279 36.0038ZM51.4197 31.2298C51.1214 32.5559 50.7567 33.8488 50.2925 35.1086C35.3407 37.8935 25.627 33.5173 13.5594 32.9537C11.6366 32.8543 9.68057 32.9869 7.59195 33.1526C5.43703 33.451 3.38157 33.7825 1.32611 34.1804C1.22665 33.882 1.12719 33.5836 1.02773 33.2852C5.80171 32.0586 10.5094 31.5282 14.985 31.6608C28.246 31.9923 40.8772 33.6499 51.4197 31.2298ZM51.9502 26.6547C51.917 27.9477 51.7844 29.1743 51.5523 30.401C36.2027 33.4842 26.3563 28.9754 14.0899 28.3787C12.167 28.3123 10.211 28.4118 8.12239 28.5776C5.40388 28.9422 2.85113 29.4064 0.298374 29.9368C0.265221 29.6716 0.232068 29.3732 0.198916 29.108C5.40388 27.583 10.6088 26.9531 15.5486 27.0857C28.8096 27.4172 41.4076 29.0749 51.9502 26.6547ZM51.6518 21.9802C51.8507 23.24 51.9502 24.5329 51.9502 25.8591C36.7 28.8759 26.8536 24.4003 14.6203 23.8367C12.7306 23.7373 10.7415 23.8699 8.65284 24.0357C5.6691 24.4335 2.85113 24.9308 0 25.5607C0 25.196 0.0331526 24.7982 0.0331526 24.4335C5.50334 22.7759 10.9735 22.0797 16.1122 22.2123C29.0086 22.5438 41.3082 24.102 51.6518 21.9802ZM50.6904 18.0019C51.0219 19.0296 51.3203 20.0905 51.5192 21.1845C36.8326 23.8036 27.152 19.5269 15.2171 18.9633C13.2942 18.8638 11.3382 18.9965 9.24958 19.1622C6.23269 19.5601 3.41472 20.0573 0.530442 20.7204C0.563595 20.5215 0.596747 20.3226 0.663053 20.1568C6.06693 18.4992 11.504 17.803 16.6095 17.9356C28.9091 18.2671 40.6783 19.7258 50.6904 18.0019ZM25.9585 0C37.2304 0 46.8115 7.16097 50.4251 17.1731C36.6337 19.2285 27.2183 15.2502 15.7143 14.6866C13.7915 14.5872 11.8355 14.7198 9.74687 14.8855C7.02836 15.2502 4.44245 15.6812 1.85655 16.2448C5.70225 6.72998 15.0513 0 25.9585 0ZM129.594 38.8549C129.594 40.7114 129.56 41.7723 129.527 42.568C129.494 44.1261 129.229 44.4245 128.798 44.524C128.632 44.5571 128.533 44.5571 128.301 44.5903C128.201 44.6234 128.069 44.6566 128.069 44.7229C128.069 44.8555 128.201 44.8887 128.4 44.8887C128.964 44.9218 129.461 44.8224 129.958 44.8224C130.754 44.8224 131.715 44.8555 132.544 44.8887C133.373 44.9218 134.069 44.955 135.594 44.955C136.423 44.955 136.589 44.955 136.721 44.3914C136.821 43.9604 136.987 42.568 136.987 42.4022C136.987 42.2365 136.987 42.0707 136.854 42.0707C136.755 42.0707 136.721 42.1701 136.688 42.4022C136.523 43.2973 136.29 43.7283 135.627 43.9272C135.064 44.093 134.368 44.1261 133.738 44.1261C132.942 44.1261 132.378 44.0598 132.014 43.9272C131.483 43.7283 131.384 43.2642 131.318 42.4022C131.318 41.9712 131.318 39.5511 131.318 38.8549V36.9983C131.318 36.932 131.384 36.8657 131.483 36.8657C131.815 36.8657 133.903 36.8989 134.467 36.9652C135.196 37.0646 135.462 37.3299 135.528 37.6614C135.594 37.8603 135.627 38.0592 135.627 38.2581C135.627 38.4239 135.627 38.5897 135.76 38.5897C135.859 38.5897 135.893 38.4571 135.926 38.2581C135.926 37.9598 135.926 37.4956 135.992 36.8326C136.058 36.1695 136.158 35.8048 136.158 35.6722C136.158 35.5396 136.125 35.5065 136.058 35.5065C135.959 35.5065 135.926 35.6059 135.793 35.7054C135.594 35.9706 135.329 36.0369 134.765 36.0701C134.301 36.1032 131.715 36.1032 131.45 36.1032C131.351 36.1032 131.318 36.0701 131.318 35.9043V30.1689C131.318 30.0031 131.384 29.9368 131.45 29.9368C131.682 29.9368 133.97 29.97 134.301 30.0031C135.23 30.1026 135.661 30.3015 135.793 30.7988C135.859 30.9646 135.926 31.1966 135.926 31.4618C135.926 31.6276 135.959 31.7602 136.092 31.7602C136.158 31.7602 136.224 31.5945 136.257 31.3955C136.29 30.8319 136.324 30.4673 136.324 30.1357C136.357 29.5721 136.489 29.3069 136.489 29.1743C136.489 29.0417 136.489 28.9754 136.423 28.9754C136.357 28.9754 136.324 29.0086 136.191 29.0417C136.058 29.108 135.694 29.1743 135.23 29.1743C134.732 29.2075 130.588 29.2075 130.456 29.2075C129.129 29.1412 128.566 29.1412 128.102 29.1412C127.87 29.1412 127.77 29.1743 127.77 29.3069C127.77 29.4064 127.903 29.4064 128.035 29.4395C128.234 29.4395 128.5 29.4395 128.632 29.5058C129.328 29.6385 129.494 29.97 129.527 30.6662C129.594 31.3624 129.594 31.926 129.594 35.1749V38.8549ZM119.615 30.0363C120.51 30.0694 121.372 30.0694 122.234 30.0694C124.256 30.1357 124.753 30.5999 124.82 31.2298C124.82 31.2961 124.82 31.3624 124.82 31.4618C124.853 31.7602 124.886 31.7934 124.985 31.7934C125.085 31.7934 125.151 31.7271 125.151 31.5282C125.151 31.2961 125.217 29.8705 125.217 29.2406C125.217 29.108 125.217 29.0086 125.118 29.0086C125.019 29.0086 124.82 29.0417 124.521 29.108C124.19 29.1743 123.692 29.2075 123.029 29.2075H115.239C114.973 29.2075 114.178 29.1743 113.581 29.108C113.017 29.0417 112.818 28.8428 112.686 28.8428C112.586 28.8428 112.487 29.108 112.454 29.2406C112.421 29.4064 111.99 31.1966 111.99 31.3955C111.99 31.5282 112.056 31.5945 112.122 31.5945C112.188 31.5945 112.255 31.5613 112.321 31.3955C112.387 31.2298 112.454 31.0972 112.686 30.7325C113.017 30.2352 113.515 30.1026 114.808 30.0694C115.802 30.0694 116.863 30.0694 117.891 30.0363V38.8549C117.891 40.844 117.891 42.5017 117.758 43.3636C117.692 43.9604 117.592 44.4245 117.161 44.524C116.996 44.5571 116.73 44.5903 116.531 44.5903C116.432 44.5903 116.366 44.6566 116.366 44.7229C116.366 44.8555 116.465 44.8887 116.697 44.8887C117.327 44.8887 118.653 44.8224 118.753 44.8224C118.852 44.8224 120.178 44.8887 121.305 44.8887C121.538 44.8887 121.637 44.8224 121.637 44.7229C121.637 44.6566 121.604 44.5903 121.471 44.5903C121.305 44.5903 120.841 44.5571 120.543 44.524C119.913 44.4245 119.78 43.9604 119.714 43.3636C119.615 42.5017 119.615 40.844 119.615 38.8549V30.0363ZM102.176 45.187C107.182 45.187 110.498 41.3082 110.498 36.6668C110.498 31.7934 106.984 28.8428 102.309 28.8428C96.5405 28.8428 94.0872 33.6168 94.0872 36.9983C94.0872 40.7446 96.4742 45.187 102.176 45.187ZM102.74 44.3914C98.9938 44.3914 96.0763 41.275 96.0763 36.4016C96.0763 31.8597 98.6622 29.5721 102.143 29.5721C105.459 29.5721 108.475 32.2575 108.475 37.2304C108.475 43.2973 104.597 44.3914 102.74 44.3914ZM78.7043 35.7385C78.638 35.7385 78.5717 35.7054 78.5717 35.6059V35.1749C78.5717 31.926 78.5717 31.3624 78.6049 30.6662C78.6712 29.9368 78.837 29.6053 79.4005 29.5058C79.6326 29.4395 79.7652 29.4395 79.8978 29.4395C79.9973 29.4395 80.0636 29.4064 80.0636 29.3069C80.0636 29.1743 79.9641 29.1412 79.7321 29.1412C79.1353 29.1412 77.8092 29.2075 77.7098 29.2075C77.6103 29.2075 76.2842 29.1412 75.3559 29.1412C75.1239 29.1412 75.0244 29.1743 75.0244 29.3069C75.0244 29.4064 75.0907 29.4395 75.1902 29.4395C75.3559 29.4395 75.7206 29.4395 75.8864 29.5058C76.5826 29.6385 76.7483 29.97 76.7815 30.6662C76.8146 31.3624 76.8146 31.926 76.8146 35.1749V38.8549C76.8146 40.844 76.8146 42.5017 76.7152 43.3636C76.6489 43.9604 76.5494 44.4245 76.1184 44.524C75.9195 44.5571 75.6875 44.5903 75.4885 44.5903C75.3559 44.5903 75.3228 44.6566 75.3228 44.7229C75.3228 44.8555 75.4222 44.8887 75.6543 44.8887C76.2842 44.8887 77.6103 44.8224 77.7098 44.8224C77.8092 44.8224 79.1353 44.8887 80.2625 44.8887C80.4946 44.8887 80.594 44.8224 80.594 44.7229C80.594 44.6566 80.5609 44.5903 80.4283 44.5903C80.2294 44.5903 79.7984 44.5571 79.5 44.524C78.8701 44.4245 78.7375 43.9604 78.6712 43.3636C78.5717 42.5017 78.5717 40.844 78.5717 38.8549V36.6668C78.5717 36.5673 78.638 36.5342 78.7043 36.5342H87.5229C87.5892 36.5342 87.6555 36.5673 87.6555 36.6668V38.8549C87.6555 40.844 87.6555 42.5017 87.5561 43.3636C87.4566 43.9604 87.3572 44.4245 86.9593 44.524C86.7604 44.5571 86.5284 44.5903 86.3294 44.5903C86.1968 44.5903 86.1637 44.6566 86.1637 44.7229C86.1637 44.8555 86.2631 44.8887 86.4952 44.8887C87.1251 44.8887 88.4181 44.8224 88.5175 44.8224C88.6501 44.8224 89.9431 44.8887 91.1034 44.8887C91.3355 44.8887 91.435 44.8224 91.435 44.7229C91.435 44.6566 91.4018 44.5903 91.2692 44.5903C91.0703 44.5903 90.6061 44.5571 90.3078 44.524C89.711 44.4245 89.5784 43.9604 89.5121 43.3636C89.4126 42.5017 89.4126 40.844 89.4126 38.8549V35.1749C89.4126 31.926 89.4126 31.3624 89.4458 30.6662C89.4789 29.9368 89.6447 29.6053 90.2083 29.5058C90.4735 29.4395 90.6061 29.4395 90.7387 29.4395C90.8382 29.4395 90.9045 29.4064 90.9045 29.3069C90.9045 29.1743 90.8051 29.1412 90.573 29.1412C89.9431 29.1412 88.6501 29.2075 88.5175 29.2075C88.4181 29.2075 87.1251 29.1412 86.1637 29.1412C85.9648 29.1412 85.8322 29.1743 85.8322 29.3069C85.8322 29.4064 85.9316 29.4395 85.9979 29.4395C86.1968 29.4395 86.5615 29.4395 86.7273 29.5058C87.4235 29.6385 87.5892 29.97 87.6224 30.6662C87.6555 31.3624 87.6555 31.926 87.6555 35.1749V35.6059C87.6555 35.7054 87.5892 35.7385 87.5229 35.7385H78.7043ZM149.286 21.8807C152.469 17.1068 155.585 12.2996 158.635 7.52565C158.702 7.39304 158.702 7.35988 158.702 7.26043C158.702 7.12782 158.602 7.09466 158.271 7.09466H152.469C151.839 7.09466 150.844 7.12782 148.855 7.02836C148.292 7.02836 148.159 6.89575 147.993 6.89575C147.861 6.89575 147.828 6.9952 147.761 7.29358C147.662 7.92348 147.363 9.81318 147.363 10.0452C147.363 10.211 147.363 10.3105 147.463 10.3105C147.596 10.3105 147.662 10.2773 147.695 9.94579C147.761 9.48165 148.159 8.68599 148.888 8.28816C149.552 7.95663 150.844 7.89033 151.905 7.89033H156.414C153.53 12.598 150.38 17.2725 147.264 21.9802C147.032 22.3449 146.966 22.4443 146.966 22.5438C146.966 22.7096 147.098 22.7096 147.363 22.7096C151.01 22.7096 154.491 22.809 157.972 22.809C158.47 22.809 158.47 22.7759 158.602 22.2786C158.735 21.7481 159 20.5215 159 19.8916C159 19.4937 158.967 19.3943 158.834 19.3943C158.735 19.3943 158.702 19.5269 158.668 19.7258C158.635 20.0242 158.436 20.5878 158.238 20.853C157.807 21.4829 157.143 21.8807 154.955 21.8807H149.286ZM132.611 13.0621C132.611 9.81318 132.611 9.24958 132.644 8.58653C132.677 7.85717 132.843 7.45934 133.406 7.39304C133.671 7.35988 133.804 7.32673 133.937 7.32673C134.036 7.32673 134.102 7.29358 134.102 7.19412C134.102 7.06151 134.003 7.02836 133.771 7.02836C133.141 7.02836 131.914 7.09466 131.715 7.09466C131.516 7.09466 130.257 7.02836 129.328 7.02836C129.096 7.02836 128.997 7.06151 128.997 7.19412C128.997 7.29358 129.063 7.32673 129.163 7.32673C129.328 7.32673 129.693 7.35988 129.859 7.39304C130.555 7.52565 130.721 7.85717 130.754 8.58653C130.787 9.24958 130.787 9.81318 130.787 13.0621V16.1122C130.787 19.1622 131.583 20.6209 132.611 21.5824C134.102 22.9748 136.191 23.0742 136.887 23.0742C138.114 23.0742 139.705 22.8753 141.197 21.5161C142.855 20.0573 143.12 17.5377 143.12 15.3165V13.0621C143.12 9.81318 143.12 9.24958 143.153 8.58653C143.186 7.85717 143.352 7.52565 143.916 7.39304C144.181 7.35988 144.28 7.32673 144.446 7.32673C144.512 7.32673 144.612 7.29358 144.612 7.19412C144.612 7.06151 144.512 7.02836 144.28 7.02836C143.65 7.02836 142.656 7.09466 142.523 7.09466C142.391 7.09466 141.263 7.02836 140.302 7.02836C140.07 7.02836 139.97 7.06151 139.97 7.19412C139.97 7.29358 140.07 7.32673 140.136 7.32673C140.335 7.32673 140.7 7.35988 140.866 7.39304C141.529 7.52565 141.694 7.85717 141.761 8.58653C141.794 9.24958 141.794 9.81318 141.794 13.0621V15.6812C141.794 17.8361 141.529 19.5932 140.6 20.7867C139.838 21.6818 138.578 22.2786 137.318 22.2786C136.125 22.2786 135.196 22.0797 134.169 21.1182C133.274 20.2894 132.611 18.9965 132.611 15.9796V13.0621ZM116.299 16.7421C116.299 18.7312 116.299 20.3889 116.2 21.2508C116.101 21.8476 116.001 22.3117 115.603 22.4112C115.404 22.4443 115.172 22.4775 114.973 22.4775C114.841 22.4775 114.808 22.5438 114.808 22.6101C114.808 22.7427 114.907 22.7759 115.139 22.7759C115.769 22.7759 117.062 22.7096 117.095 22.7096C117.195 22.7096 118.521 22.7759 119.648 22.7759C119.88 22.7759 119.979 22.7096 119.979 22.6101C119.979 22.5438 119.946 22.4775 119.814 22.4775C119.648 22.4775 119.184 22.4443 118.885 22.4112C118.255 22.3117 118.123 21.8476 118.057 21.2508C117.957 20.3889 117.957 18.7312 117.957 16.7421V16.2448C117.957 16.1453 118.023 16.079 118.123 16.079L120.676 16.1122C120.808 16.1122 120.874 16.1453 120.941 16.2448C121.372 16.7752 122.333 18.1676 123.228 19.328C124.389 20.8862 125.118 21.9139 126.013 22.378C126.577 22.6764 127.074 22.7759 128.268 22.7759H129.726C130.124 22.7759 130.224 22.7427 130.224 22.6101C130.224 22.5438 130.157 22.4775 130.058 22.4775C129.925 22.4775 129.627 22.4775 129.229 22.4112C128.699 22.3449 127.803 22.1128 126.709 20.9193C125.483 19.6264 124.057 17.7698 122.366 15.5817C124.223 13.8578 124.886 12.3328 124.886 10.7746C124.886 9.34904 123.958 8.32131 123.46 7.95663C122.333 7.16097 120.941 7.02836 119.648 7.02836C118.985 7.02836 117.393 7.09466 117.161 7.09466C117.062 7.09466 115.769 7.02836 114.808 7.02836C114.609 7.02836 114.476 7.06151 114.476 7.19412C114.476 7.29358 114.575 7.32673 114.642 7.32673C114.841 7.32673 115.205 7.35988 115.371 7.39304C116.067 7.52565 116.233 7.85717 116.266 8.58653C116.299 9.24958 116.299 9.81318 116.299 13.0621V16.7421ZM117.957 8.08924C117.957 7.95663 118.023 7.85717 118.123 7.82402C118.355 7.75772 118.918 7.69141 119.515 7.69141C121.77 7.69141 123.129 9.24958 123.129 11.8686C123.129 13.46 122.598 14.5872 121.869 15.0844C121.372 15.416 120.808 15.4823 120.311 15.4823C119.383 15.4823 118.421 15.3165 118.123 15.1508C118.023 15.0844 117.957 14.985 117.957 14.8855V8.08924ZM104.166 21.7813C104.563 22.7759 104.696 23.0742 104.928 23.0742C105.127 23.0742 105.226 22.7427 105.79 21.4829C106.287 20.4552 107.216 18.2008 108.509 15.1839C109.569 12.6312 110.597 10.1116 110.829 9.54796C111.393 8.12239 111.691 7.75772 111.956 7.5588C112.354 7.32673 112.818 7.32673 112.984 7.32673C113.15 7.32673 113.216 7.29358 113.216 7.19412C113.216 7.06151 113.084 7.02836 112.852 7.02836C112.255 7.02836 111.36 7.09466 111.227 7.09466C110.995 7.09466 110.034 7.02836 109.205 7.02836C108.873 7.02836 108.741 7.06151 108.741 7.19412C108.741 7.29358 108.84 7.32673 108.973 7.32673C109.205 7.32673 109.503 7.32673 109.768 7.39304C109.967 7.52565 110.034 7.72456 110.034 7.89033C110.034 8.08924 109.934 8.35446 109.835 8.68599C109.404 10.1779 106.586 17.4383 105.392 20.2231L101.149 9.18328C100.917 8.58653 100.718 8.02294 100.718 7.85717C100.718 7.69141 100.751 7.52565 100.983 7.42619C101.182 7.35988 101.547 7.32673 101.779 7.32673C101.944 7.32673 102.011 7.29358 102.011 7.19412C102.011 7.06151 101.812 7.02836 101.447 7.02836C100.651 7.02836 99.7563 7.09466 99.5242 7.09466C99.2921 7.09466 98.1649 7.02836 97.1704 7.02836C96.8388 7.02836 96.6068 7.06151 96.6068 7.19412C96.6068 7.26043 96.6731 7.32673 96.7725 7.32673C96.9051 7.32673 97.2698 7.32673 97.5682 7.39304C98.2975 7.6251 98.6291 7.85717 99.0932 9.01752L104.166 21.7813ZM93.391 16.6426C93.4904 16.6426 93.5236 16.6758 93.5899 16.7752L95.5127 21.8807C95.6453 22.2123 95.5127 22.4112 95.3801 22.4443C95.3138 22.4775 95.2475 22.5106 95.2475 22.5769C95.2475 22.7096 95.4796 22.7096 95.8774 22.7427C97.303 22.7759 98.828 22.7759 99.1264 22.7759C99.3584 22.7759 99.5573 22.7427 99.5573 22.6101C99.5573 22.5106 99.4579 22.4775 99.3253 22.4775C99.1595 22.4775 98.828 22.4775 98.5296 22.3449C98.0655 22.2454 97.4687 21.9139 96.7394 20.0573C95.4464 16.8747 92.1975 8.28816 91.8659 7.49249C91.6339 6.86259 91.5344 6.72998 91.4018 6.72998C91.3023 6.72998 91.2029 6.86259 90.9708 7.5588L86.23 20.4883C85.8653 21.5161 85.4343 22.3117 84.4729 22.4443C84.3071 22.4775 84.1414 22.4775 83.9756 22.4775C83.8098 22.4775 83.6772 22.5438 83.6772 22.6101C83.6772 22.7427 83.8098 22.7759 84.0751 22.7759C85.0696 22.7759 86.1968 22.7096 86.4289 22.7096C86.661 22.7096 87.4898 22.7759 87.9871 22.7759C88.186 22.7759 88.3849 22.7427 88.3849 22.6101C88.3849 22.5438 88.3186 22.4775 88.1197 22.4775C88.0534 22.4775 87.9871 22.4775 87.9208 22.4775C87.5561 22.4775 87.1583 22.3117 87.1583 21.8807C87.1583 21.5161 87.2577 21.0188 87.4566 20.4883L88.7164 16.8084C88.7496 16.7089 88.8159 16.6426 88.9154 16.6426H93.391ZM89.1474 15.8801C89.0811 15.8801 89.048 15.847 89.0811 15.7475L90.9045 10.1116C91.004 9.81318 91.1366 9.81318 91.236 10.1116L93.192 15.7475C93.2252 15.8138 93.2252 15.8801 93.1257 15.8801H89.1474ZM67.5651 19.7258C67.5651 21.6155 67.4324 22.2123 66.9352 22.3449C66.6036 22.4775 66.239 22.4775 66.0732 22.4775C65.9737 22.4775 65.9074 22.5438 65.9074 22.6101C65.9074 22.7427 66.04 22.7759 66.239 22.7759C67.1672 22.7759 68.0623 22.7096 68.2281 22.7096C68.427 22.7096 69.2558 22.7759 70.4493 22.7759C70.6814 22.7759 70.814 22.7427 70.814 22.6101C70.814 22.5438 70.7477 22.4775 70.6483 22.4775C70.4825 22.4775 70.0183 22.4775 69.6205 22.3449C69.0569 22.1791 68.858 21.6487 68.7917 19.9579L68.5265 9.97894C69.1895 10.7083 71.5434 13.3274 73.9635 15.9464C76.1516 18.3334 79.1685 21.3834 79.4005 21.5824C80.4946 22.7096 80.7598 22.9085 80.9256 22.9085C81.0582 22.9085 81.0913 22.809 81.0913 21.4498L81.1576 9.28274C81.1576 7.85717 81.2902 7.52565 81.887 7.39304C82.1191 7.35988 82.2517 7.35988 82.4174 7.32673C82.55 7.29358 82.6495 7.26043 82.6495 7.19412C82.6495 7.06151 82.4837 7.02836 82.2848 7.02836C81.4229 7.02836 80.7267 7.09466 80.4946 7.09466C80.2625 7.09466 79.2679 7.02836 78.3397 7.02836C78.0744 7.02836 77.9087 7.06151 77.9087 7.19412C77.9087 7.26043 77.975 7.32673 78.2071 7.32673C78.406 7.32673 78.7375 7.35988 79.1022 7.42619C79.7321 7.59195 79.8978 8.05609 79.8978 9.41535L80.1299 19.991C79.4669 19.2948 77.2125 16.7752 75.157 14.554C71.9412 11.1061 68.858 7.75772 68.5265 7.39304C68.3276 7.19412 67.9629 6.72998 67.7971 6.72998C67.6314 6.72998 67.5651 6.96205 67.5651 7.79087C67.5982 11.8355 67.5651 9.11697 67.5651 16.6426V19.7258Z" fill="#B99470"/>
</svg>
