<svg width="128" height="20" viewBox="0 0 128 20" fill="none" xmlns="http://www.w3.org/2000/svg">
<g clip-path="url(#clip0)">
<path d="M19.9479 7.67185C19.8169 7.26687 19.4577 6.97923 19.0328 6.94093L13.2602 6.41678L10.9776 1.07408C10.8093 0.682532 10.426 0.429077 10.0001 0.429077C9.57422 0.429077 9.19091 0.682532 9.0226 1.075L6.73998 6.41678L0.966514 6.94093C0.542309 6.98015 0.184023 7.26687 0.0523365 7.67185C-0.0793503 8.07683 0.0422654 8.52102 0.363166 8.80103L4.72653 12.6277L3.43987 18.2954C3.34573 18.7122 3.50747 19.1429 3.85325 19.3929C4.0391 19.5272 4.25655 19.5955 4.47582 19.5955C4.66488 19.5955 4.85242 19.5446 5.02073 19.4438L10.0001 16.4678L14.9776 19.4438C15.3419 19.663 15.801 19.643 16.146 19.3929C16.492 19.1422 16.6536 18.7113 16.5594 18.2954L15.2728 12.6277L19.6361 8.80179C19.957 8.52102 20.0796 8.07759 19.9479 7.67185Z" fill="#FFC107"/>
</g>
<g clip-path="url(#clip1)">
<path d="M46.9479 7.67185C46.8169 7.26687 46.4577 6.97923 46.0328 6.94093L40.2602 6.41678L37.9776 1.07408C37.8093 0.682532 37.426 0.429077 37.0001 0.429077C36.5742 0.429077 36.1909 0.682532 36.0226 1.075L33.74 6.41678L27.9665 6.94093C27.5423 6.98015 27.184 7.26687 27.0523 7.67185C26.9206 8.07683 27.0423 8.52102 27.3632 8.80103L31.7265 12.6277L30.4399 18.2954C30.3457 18.7122 30.5075 19.1429 30.8532 19.3929C31.0391 19.5272 31.2565 19.5955 31.4758 19.5955C31.6649 19.5955 31.8524 19.5446 32.0207 19.4438L37.0001 16.4678L41.9776 19.4438C42.3419 19.663 42.801 19.643 43.146 19.3929C43.492 19.1422 43.6536 18.7113 43.5594 18.2954L42.2728 12.6277L46.6361 8.80179C46.957 8.52102 47.0796 8.07759 46.9479 7.67185Z" fill="#FFC107"/>
</g>
<g clip-path="url(#clip2)">
<path d="M73.9479 7.67185C73.8169 7.26687 73.4577 6.97923 73.0328 6.94093L67.2602 6.41678L64.9776 1.07408C64.8093 0.682532 64.426 0.429077 64.0001 0.429077C63.5742 0.429077 63.1909 0.682532 63.0226 1.075L60.74 6.41678L54.9665 6.94093C54.5423 6.98015 54.184 7.26687 54.0523 7.67185C53.9206 8.07683 54.0423 8.52102 54.3632 8.80103L58.7265 12.6277L57.4399 18.2954C57.3457 18.7122 57.5075 19.1429 57.8532 19.3929C58.0391 19.5272 58.2565 19.5955 58.4758 19.5955C58.6649 19.5955 58.8524 19.5446 59.0207 19.4438L64.0001 16.4678L68.9776 19.4438C69.3419 19.663 69.801 19.643 70.146 19.3929C70.492 19.1422 70.6536 18.7113 70.5594 18.2954L69.2728 12.6277L73.6361 8.80179C73.957 8.52102 74.0796 8.07759 73.9479 7.67185Z" fill="#FFC107"/>
</g>
<g clip-path="url(#clip3)">
<path d="M100.948 7.67185C100.817 7.26687 100.458 6.97923 100.033 6.94093L94.2602 6.41678L91.9776 1.07408C91.8093 0.682532 91.426 0.429077 91.0001 0.429077C90.5742 0.429077 90.1909 0.682532 90.0226 1.075L87.74 6.41678L81.9665 6.94093C81.5423 6.98015 81.184 7.26687 81.0523 7.67185C80.9206 8.07683 81.0423 8.52102 81.3632 8.80103L85.7265 12.6277L84.4399 18.2954C84.3457 18.7122 84.5075 19.1429 84.8532 19.3929C85.0391 19.5272 85.2565 19.5955 85.4758 19.5955C85.6649 19.5955 85.8524 19.5446 86.0207 19.4438L91.0001 16.4678L95.9776 19.4438C96.3419 19.663 96.801 19.643 97.146 19.3929C97.492 19.1422 97.6536 18.7113 97.5594 18.2954L96.2728 12.6277L100.636 8.80179C100.957 8.52102 101.08 8.07759 100.948 7.67185Z" fill="#FFC107"/>
</g>
<g clip-path="url(#clip4)">
<path d="M127.948 7.67185C127.817 7.26687 127.458 6.97923 127.033 6.94093L121.26 6.41678L118.978 1.07408C118.809 0.682532 118.426 0.429077 118 0.429077C117.574 0.429077 117.191 0.682532 117.023 1.075L114.74 6.41678L108.967 6.94093C108.542 6.98015 108.184 7.26687 108.052 7.67185C107.921 8.07683 108.042 8.52102 108.363 8.80103L112.727 12.6277L111.44 18.2954C111.346 18.7122 111.507 19.1429 111.853 19.3929C112.039 19.5272 112.257 19.5955 112.476 19.5955C112.665 19.5955 112.852 19.5446 113.021 19.4438L118 16.4678L122.978 19.4438C123.342 19.663 123.801 19.643 124.146 19.3929C124.492 19.1422 124.654 18.7113 124.559 18.2954L123.273 12.6277L127.636 8.80179C127.957 8.52102 128.08 8.07759 127.948 7.67185Z" fill="#FFC107"/>
</g>
<defs>
<clipPath id="clip0">
<rect width="20" height="20" fill="white"/>
</clipPath>
<clipPath id="clip1">
<rect width="20" height="20" fill="white" transform="translate(27)"/>
</clipPath>
<clipPath id="clip2">
<rect width="20" height="20" fill="white" transform="translate(54)"/>
</clipPath>
<clipPath id="clip3">
<rect width="20" height="20" fill="white" transform="translate(81)"/>
</clipPath>
<clipPath id="clip4">
<rect width="20" height="20" fill="white" transform="translate(108)"/>
</clipPath>
</defs>
</svg>
